# xmcd CD database file
#
# Track frame offsets:
#	150
#	17325
#	31037
#	45674
#	64124
#	76877
#	89851
#	105487
#	116623
#	154972
#	173399
#	196451
#	217047
#	230249
#	242777
#	259345
#
# Disc length: 3881 seconds
#
# Revision: 0
# Processed by: cddbd v1.5.2PL0 Copyright (c) Steve Scherf et al.
# Submitted via: CDex 1.51
#
DISCID=d50f2710
DTITLE=Various Artist - Jazz - The Essential Collection disc 20
DYEAR=1900
DGENRE=Jazz
TTITLE0=Ahmad Jamal Trio - Rica Pulpa
TTITLE1=Carl Tajder - Out Of Nowhere
TTITLE2=Thelonious Monk - Mood Indigo
TTITLE3=Quincy Jones - Abstractions
TTITLE4=Art Tatum - Dardanella
TTITLE5=Dave Brubeck - At A Perfume Counter
TTITLE6=Kel Colyer's Jazzmen - Cataract Rag
TTITLE7=Kenny Drew Trio - Stella By Starlight
TTITLE8=Art Blakey Quintet - Split Kick
TTITLE9=Errol Garner - Chopin Impressions
TTITLE10=Julius Watkins Sextet - Perpetuation
TTITLE11=Al Caiola - Everything Happens To Me
TTITLE12=Bennie Green (feat. Strings) Serenade To Love
TTITLE13=Billie Holiday - Yesterdays
TTITLE14=Billy Eckstine - Tenderly
TTITLE15=Miles Davis Quintet - 'Round About Midnight
EXTD=
EXTT0=
EXTT1=
EXTT2=
EXTT3=
EXTT4=
EXTT5=
EXTT6=
EXTT7=
EXTT8=
EXTT9=
EXTT10=
EXTT11=
EXTT12=
EXTT13=
EXTT14=
EXTT15=
PLAYORDER=
